<svg width="130" height="44" viewBox="0 0 130 44" fill="none" xmlns="http://www.w3.org/2000/svg">
<g clip-path="url(#clip0_66_3982)">
<path d="M9.86133 23.1483L28.5022 12.0242V5.49951L9.86133 16.6236V23.1483Z" fill="#FFD422"/>
<path d="M37.9933 10.9955H37.9924L37.9572 11.0174L19.3591 22.1167V28.6414L32.2981 20.9192V29.6988L19.0009 37.3981L5.7019 29.6988V14.3021L19.0009 6.60376V0L0 11.0002V33.0007L19.0009 44L38 33.0007V17.5164V11.0002V10.9917L37.9933 10.9955Z" fill="#FFD422"/>
<path d="M52.3854 14.6323V11.6109C52.3854 8.10511 53.9983 6.35352 57.2213 6.35352C58.6613 6.35352 59.8081 6.73316 60.6616 7.48982C61.5152 8.24911 61.9419 9.2964 61.9419 10.6343V10.7678H59.4389V10.6343C59.4389 10.0347 59.2452 9.53727 58.8551 9.14454C58.4676 8.74919 57.9151 8.55282 57.2003 8.55282C56.3965 8.55282 55.8153 8.80155 55.4514 9.29902C55.0874 9.79648 54.9068 10.6107 54.9068 11.7471V14.5957C54.9068 15.6796 55.1005 16.4599 55.4906 16.9364C55.8781 17.4129 56.4803 17.6538 57.2972 17.6538C58.0617 17.6538 58.6194 17.4574 58.9703 17.062C59.3211 16.6667 59.4965 16.0671 59.4965 15.2659V14.635H57.1637V12.5692H61.9419V14.8261C61.9419 18.2036 60.3553 19.8923 57.182 19.8923C54.0087 19.8923 52.3828 18.1408 52.3828 14.635L52.3854 14.6323Z" fill="black"/>
<path d="M68.2136 14.3852H66.339V19.7368H63.8359V6.54883H68.8446C70.1328 6.54883 71.1565 6.90229 71.9236 7.60921C72.6882 8.31613 73.0704 9.2744 73.0704 10.4866C73.0704 11.3533 72.8688 12.0864 72.4682 12.6859C72.0676 13.2855 71.489 13.7254 70.7376 14.0055L73.6045 19.7394H70.7192L68.2162 14.3878L68.2136 14.3852ZM66.339 12.3011H68.7085C69.2949 12.3011 69.7505 12.144 70.0752 11.8324C70.3998 11.5208 70.5622 11.0705 70.5622 10.484C70.5622 9.9499 70.3972 9.52313 70.0647 9.20371C69.7322 8.88428 69.2818 8.72457 68.7085 8.72457H66.339V12.2984V12.3011Z" fill="black"/>
<path d="M82.2225 17.1749H77.693L76.8892 19.7355H74.25L78.934 6.54492H80.9788L85.6812 19.7355H83.0237L82.2199 17.1749H82.2225ZM81.5522 15.0908L79.9473 10.0245L78.3606 15.0908H81.5522Z" fill="black"/>
<path d="M96.7509 6.54883V19.7394H94.2478L89.3936 11.4999V19.7394H86.8906V6.54883H89.3936L94.2478 14.8067V6.54883H96.7509Z" fill="black"/>
<path d="M99.0078 6.54883H103.653C105.119 6.54883 106.273 6.95727 107.122 7.77154C107.97 8.58842 108.394 9.92634 108.394 11.7853V14.4794C108.394 16.341 107.962 17.6815 107.096 18.5036C106.229 19.3258 105.056 19.7368 103.579 19.7368H99.0104V6.54883H99.0078ZM103.634 17.5585C104.386 17.5585 104.949 17.3097 105.326 16.8123C105.703 16.3148 105.889 15.5319 105.889 14.4611V11.9188C105.889 10.7982 105.705 9.98394 105.333 9.48124C104.964 8.97854 104.396 8.72719 103.632 8.72719H101.511V17.5585H103.632H103.634Z" fill="black"/>
<path d="M64.5708 24.416V37.6066H62.0678V29.7886L59.5648 35.0643H57.8813L55.339 29.731V37.6066H52.8359V24.416H55.339L58.7217 31.6999L62.0678 24.416H64.5708Z" fill="black"/>
<path d="M73.7459 35.046H69.2164L68.4126 37.6066H65.7734L70.4574 24.416H72.5023L77.2046 37.6066H74.5471L73.7433 35.046H73.7459ZM73.0757 32.9619L71.4707 27.8956L69.884 32.9619H73.0757Z" fill="black"/>
<path d="M82.7878 32.255H80.9132V37.6066H78.4102V24.416H83.4188C84.707 24.416 85.7307 24.7695 86.4978 25.4764C87.2624 26.1833 87.6446 27.1416 87.6446 28.3538C87.6446 29.2205 87.443 29.9536 87.0424 30.5531C86.6418 31.1527 86.0632 31.5926 85.3118 31.8727L88.1787 37.6066H85.2935L82.7904 32.255H82.7878ZM80.9132 30.1709H83.2827C83.8691 30.1709 84.3247 30.0138 84.6494 29.7022C84.974 29.3906 85.1364 28.9403 85.1364 28.3538C85.1364 27.8197 84.9714 27.3929 84.6389 27.0735C84.3064 26.7541 83.8561 26.5944 83.2827 26.5944H80.9132V30.1682V30.1709Z" fill="black"/>
<path d="M93.9329 31.7392L92.1944 33.9175V37.6066H89.6914V24.416H92.1944V30.5715L96.7632 24.416H99.7637L95.5379 29.7101L100.107 37.604H97.2005L93.9329 31.7366V31.7392Z" fill="black"/>
<path d="M103.853 26.597V29.8672H108.862V32.0455H103.853V35.4283H109.721V37.6066H101.348V24.416H109.721V26.5944H103.853V26.597Z" fill="black"/>
<path d="M119.759 26.5983H116.394V37.6079H113.87V26.5983H110.506V24.4199H119.759V26.5983Z" fill="black"/>
<path d="M129.626 35.3798C129.377 35.8668 129.034 36.2779 128.602 36.613C128.17 36.9482 127.663 37.2047 127.076 37.3802C126.49 37.5556 125.859 37.6446 125.175 37.6446C124.188 37.6446 123.308 37.5189 122.536 37.2702C121.764 37.0215 121.059 36.5738 120.426 35.9271L122.07 34.2828C122.484 34.6965 122.96 34.9845 123.494 35.1416C124.031 35.3013 124.602 35.3798 125.212 35.3798C125.966 35.3798 126.539 35.2437 126.929 34.9688C127.32 34.6939 127.513 34.2959 127.513 33.7723C127.513 33.2984 127.38 32.9318 127.11 32.6752C126.977 32.5522 126.827 32.4579 126.662 32.3925C126.497 32.3244 126.264 32.2668 125.958 32.2196L124.387 31.9997C123.28 31.84 122.439 31.4813 121.866 30.921C121.245 30.3005 120.934 29.447 120.934 28.363C120.934 27.7791 121.036 27.245 121.245 26.7633C121.452 26.2815 121.751 25.8678 122.141 25.5196C122.531 25.1714 123.005 24.9017 123.565 24.7054C124.125 24.5116 124.759 24.4121 125.466 24.4121C126.367 24.4121 127.152 24.5273 127.822 24.7603C128.493 24.9907 129.108 25.3809 129.668 25.9307L128.061 27.5199C127.647 27.1298 127.204 26.8837 126.736 26.779C126.267 26.6743 125.819 26.6245 125.393 26.6245C124.709 26.6245 124.204 26.7868 123.877 27.1089C123.547 27.4309 123.384 27.8184 123.384 28.2688C123.384 28.4389 123.416 28.6039 123.476 28.761C123.536 28.9207 123.633 29.0647 123.769 29.2008C123.903 29.3239 124.07 29.4286 124.272 29.5203C124.474 29.6119 124.707 29.6747 124.976 29.7114L126.511 29.9313C127.107 30.0177 127.6 30.1408 127.99 30.3057C128.38 30.4707 128.715 30.6801 128.995 30.9367C129.349 31.2666 129.605 31.662 129.762 32.1254C129.919 32.5888 130.001 33.1125 130.001 33.6963C130.001 34.3299 129.875 34.8902 129.626 35.3772V35.3798Z" fill="black"/>
</g>
<defs>
<clipPath id="clip0_66_3982">
<rect width="130" height="44" fill="black" transform="translate(0 0.0917969)"/>
</clipPath>
</defs>
</svg>
