<?xml version="1.0" encoding="utf-8"?>
<!-- Generator: Adobe Illustrator 27.0.0, SVG Export Plug-In . SVG Version: 6.00 Build 0)  -->
<svg version="1.1" id="Layer_1" xmlns="http://www.w3.org/2000/svg" xmlns:xlink="http://www.w3.org/1999/xlink" x="0px" y="0px"
	 viewBox="0 0 130 44" style="enable-background:new 0 0 130 44;" xml:space="preserve">
<style type="text/css">
	.st0{clip-path:url(#SVGID_00000155847392398616649430000004217187465754889652_);}
	.st1{fill:#FFD422;}
	.st2{fill:#FFFFFF;}
</style>
<g>
	<defs>
		<rect id="SVGID_1_" y="0.1" width="130" height="44"/>
	</defs>
	<clipPath id="SVGID_00000062889842098137253120000009399366135172709295_">
		<use xlink:href="#SVGID_1_"  style="overflow:visible;"/>
	</clipPath>
	<g style="clip-path:url(#SVGID_00000062889842098137253120000009399366135172709295_);">
		<path class="st1" d="M9.9,23.1L28.5,12V5.5L9.9,16.6V23.1z"/>
		<path class="st1" d="M38,11L38,11L38,11L19.4,22.1v6.5l12.9-7.7v8.8L19,37.4L5.7,29.7V14.3L19,6.6V0L0,11v22l19,11l19-11V17.5
			L38,11L38,11L38,11z"/>
		<path class="st2" d="M52.4,14.6v-3c0-3.5,1.6-5.3,4.8-5.3c1.4,0,2.6,0.4,3.4,1.1c0.9,0.8,1.3,1.8,1.3,3.1v0.1h-2.5v-0.1
			c0-0.6-0.2-1.1-0.6-1.5c-0.4-0.4-0.9-0.6-1.7-0.6c-0.8,0-1.4,0.2-1.7,0.7c-0.4,0.5-0.5,1.3-0.5,2.4v2.8c0,1.1,0.2,1.9,0.6,2.3
			c0.4,0.5,1,0.7,1.8,0.7c0.8,0,1.3-0.2,1.7-0.6c0.4-0.4,0.5-1,0.5-1.8v-0.6h-2.3v-2.1h4.8v2.3c0,3.4-1.6,5.1-4.8,5.1
			C54,19.9,52.4,18.1,52.4,14.6L52.4,14.6z"/>
		<path class="st2" d="M68.2,14.4h-1.9v5.4h-2.5V6.5h5c1.3,0,2.3,0.4,3.1,1.1c0.8,0.7,1.1,1.7,1.1,2.9c0,0.9-0.2,1.6-0.6,2.2
			c-0.4,0.6-1,1-1.7,1.3l2.9,5.7h-2.9L68.2,14.4L68.2,14.4z M66.3,12.3h2.4c0.6,0,1-0.2,1.4-0.5c0.3-0.3,0.5-0.8,0.5-1.3
			c0-0.5-0.2-1-0.5-1.3c-0.3-0.3-0.8-0.5-1.4-0.5h-2.4V12.3L66.3,12.3z"/>
		<path class="st2" d="M82.2,17.2h-4.5l-0.8,2.6h-2.6l4.7-13.2h2l4.7,13.2H83L82.2,17.2L82.2,17.2z M81.6,15.1L79.9,10l-1.6,5.1
			H81.6z"/>
		<path class="st2" d="M96.8,6.5v13.2h-2.5l-4.9-8.2v8.2h-2.5V6.5h2.5l4.9,8.3V6.5H96.8z"/>
		<path class="st2" d="M99,6.5h4.6c1.5,0,2.6,0.4,3.5,1.2c0.8,0.8,1.3,2.2,1.3,4v2.7c0,1.9-0.4,3.2-1.3,4c-0.9,0.8-2,1.2-3.5,1.2H99
			L99,6.5L99,6.5z M103.6,17.6c0.8,0,1.3-0.2,1.7-0.7c0.4-0.5,0.6-1.3,0.6-2.4v-2.5c0-1.1-0.2-1.9-0.6-2.4c-0.4-0.5-0.9-0.8-1.7-0.8
			h-2.1v8.8H103.6L103.6,17.6z"/>
		<path class="st2" d="M64.6,24.4v13.2h-2.5v-7.8l-2.5,5.3h-1.7l-2.5-5.3v7.9h-2.5V24.4h2.5l3.4,7.3l3.3-7.3H64.6z"/>
		<path class="st2" d="M73.7,35h-4.5l-0.8,2.6h-2.6l4.7-13.2h2l4.7,13.2h-2.7L73.7,35L73.7,35z M73.1,33l-1.6-5.1L69.9,33H73.1z"/>
		<path class="st2" d="M82.8,32.3h-1.9v5.4h-2.5V24.4h5c1.3,0,2.3,0.4,3.1,1.1c0.8,0.7,1.1,1.7,1.1,2.9c0,0.9-0.2,1.6-0.6,2.2
			c-0.4,0.6-1,1-1.7,1.3l2.9,5.7h-2.9L82.8,32.3L82.8,32.3z M80.9,30.2h2.4c0.6,0,1-0.2,1.4-0.5c0.3-0.3,0.5-0.8,0.5-1.3
			c0-0.5-0.2-1-0.5-1.3c-0.3-0.3-0.8-0.5-1.4-0.5h-2.4V30.2L80.9,30.2z"/>
		<path class="st2" d="M93.9,31.7l-1.7,2.2v3.7h-2.5V24.4h2.5v6.2l4.6-6.2h3l-4.2,5.3l4.6,7.9h-2.9L93.9,31.7L93.9,31.7z"/>
		<path class="st2" d="M103.9,26.6v3.3h5V32h-5v3.4h5.9v2.2h-8.4V24.4h8.4v2.2L103.9,26.6L103.9,26.6z"/>
		<path class="st2" d="M119.8,26.6h-3.4v11h-2.5v-11h-3.4v-2.2h9.3V26.6z"/>
		<path class="st2" d="M129.6,35.4c-0.2,0.5-0.6,0.9-1,1.2c-0.4,0.3-0.9,0.6-1.5,0.8c-0.6,0.2-1.2,0.3-1.9,0.3c-1,0-1.9-0.1-2.6-0.4
			c-0.8-0.2-1.5-0.7-2.1-1.3l1.6-1.6c0.4,0.4,0.9,0.7,1.4,0.9c0.5,0.2,1.1,0.2,1.7,0.2c0.8,0,1.3-0.1,1.7-0.4
			c0.4-0.3,0.6-0.7,0.6-1.2c0-0.5-0.1-0.8-0.4-1.1c-0.1-0.1-0.3-0.2-0.4-0.3c-0.2-0.1-0.4-0.1-0.7-0.2l-1.6-0.2
			c-1.1-0.2-1.9-0.5-2.5-1.1c-0.6-0.6-0.9-1.5-0.9-2.6c0-0.6,0.1-1.1,0.3-1.6c0.2-0.5,0.5-0.9,0.9-1.2s0.9-0.6,1.4-0.8
			c0.6-0.2,1.2-0.3,1.9-0.3c0.9,0,1.7,0.1,2.4,0.3c0.7,0.2,1.3,0.6,1.8,1.2l-1.6,1.6c-0.4-0.4-0.9-0.6-1.3-0.7
			c-0.5-0.1-0.9-0.2-1.3-0.2c-0.7,0-1.2,0.2-1.5,0.5c-0.3,0.3-0.5,0.7-0.5,1.2c0,0.2,0,0.3,0.1,0.5c0.1,0.2,0.2,0.3,0.3,0.4
			c0.1,0.1,0.3,0.2,0.5,0.3c0.2,0.1,0.4,0.2,0.7,0.2l1.5,0.2c0.6,0.1,1.1,0.2,1.5,0.4c0.4,0.2,0.7,0.4,1,0.6
			c0.4,0.3,0.6,0.7,0.8,1.2c0.2,0.5,0.2,1,0.2,1.6C130,34.3,129.9,34.9,129.6,35.4L129.6,35.4z"/>
	</g>
</g>
</svg>
